<?xml version="1.0" encoding="utf-8"?>
<!-- Generator: Adobe Illustrator 22.1.0, SVG Export Plug-In . SVG Version: 6.00 Build 0)  -->
<svg version="1.1" id="Layer_1" xmlns="http://www.w3.org/2000/svg" xmlns:xlink="http://www.w3.org/1999/xlink" x="0px" y="0px"
	 viewBox="0 0 20 20" style="enable-background:new 0 0 20 20;" xml:space="preserve">
<style type="text/css">
	.st0{opacity:0.25;fill:#666666;enable-background:new    ;}
	.st1{fill:#666666;}
</style>
<title>cart_unpopulated_selected</title>
<polygon class="st0" points="6,15 18,15 19,6 4,4.4 "/>
<circle class="st1" cx="6.5" cy="18.5" r="1.5"/>
<circle class="st1" cx="17.5" cy="18.5" r="1.5"/>
<path class="st1" d="M18,16H6c-0.5,0-0.9-0.4-1-0.9L3.1,2.8L0.7,2C0.2,1.8-0.1,1.3,0,0.7c0,0,0,0,0-0.1C0.2,0.2,0.8-0.1,1.3,0
	c0,0,0,0,0,0l3,1C4.7,1.2,4.9,1.5,5,1.8L6.9,14h10.2l0.8-7.1L7.9,6C7.4,6,7,5.5,7,4.9C7,4.4,7.5,4,8.1,4l11,1c0.3,0,0.5,0.2,0.7,0.4
	C19.9,5.6,20,5.8,20,6.1l-1,9C18.9,15.6,18.5,16,18,16z"/>
</svg>
