<svg xmlns="http://www.w3.org/2000/svg" viewBox="0 0 20 20"><defs><style>
    .cls-1 {
        fill: #666
    }
</style></defs><g id="Layer_2" data-name="Layer 2"><g id="Layer_1-2" data-name="Layer 1"><path class="cls-1" d="M18 16H6a1 1 0 0 1-1-.85L3.1 2.76.68 2A1 1 0 0 1 .05.68 1 1 0 0 1 1.32.05l3 1a1 1 0 0 1 .67.8L6.86 14h10.25l.78-7.1L7.91 6a1 1 0 0 1 .18-2l11 1a1 1 0 0 1 .68.37 1 1 0 0 1 .22.74l-1 9A1 1 0 0 1 18 16z"/><circle class="cls-1" cx="6.5" cy="18.5" r="1.5"/><circle class="cls-1" cx="12" cy="10" r="2"/><circle class="cls-1" cx="17.5" cy="18.5" r="1.5"/><path opacity=".25" fill="#666" d="M6 15h12l1-9L4 4.42 6 15z"/></g></g></svg>