<?xml version="1.0" encoding="utf-8" ?>
<!-- Generator: Adobe Illustrator 22.1.0, SVG Export Plug-In . SVG Version: 6.00 Build 0)  -->
<svg version="1.1" id="Layer_1" xmlns="http://www.w3.org/2000/svg" xmlns:xlink="http://www.w3.org/1999/xlink" x="0px" y="0px"
     viewBox="0 0 20 20" style="enable-background:new 0 0 20 20;" xml:space="preserve">
<style type="text/css">
    .st0{fill:#FF00FF;}
</style>
<title>cart_unpopulated_selected</title>
<circle class="st0" cx="6.5" cy="18.5" r="1.5" />

<circle class="st0" cx="17.5" cy="18.5" r="1.5" />

<path class="st0" d="M18,16H6c-0.5,0-0.9-0.4-1-0.9L3.1,2.8L0.7,2C0.2,1.8-0.1,1.3,0,0.7c0,0,0,0,0-0.1C0.2,0.2,0.8-0.1,1.3,0l0,0
    l3,1C4.7,1.2,4.9,1.5,5,1.8L6.9,14h10.2l0.8-7.1L7.9,6C7.4,6,7,5.5,7,4.9C7,4.4,7.5,4,8.1,4l11,1c0.3,0,0.5,0.2,0.7,0.4
    C19.9,5.6,20,5.8,20,6.1l-1,9C18.9,15.6,18.5,16,18,16z" />

</svg>
