<svg xmlns="http://www.w3.org/2000/svg" viewBox="0 0 11.87 20"><defs><style>.cls-1{fill:#fff;fill-rule:evenodd;}</style></defs><title>flash</title><g id="Layer_2" data-name="Layer 2"><g id="Layer_1-2" data-name="Layer 1"><path class="cls-1" d="M11.84,7a.33.33,0,0,0-.3-.2l-4-.07L11.66.51a.32.32,0,0,0,0-.34.36.36,0,0,0-.3-.17H5.87a.36.36,0,0,0-.31.16L.05,10.73a.3.3,0,0,0,0,.34.39.39,0,0,0,.3.17l3.49.06L.24,19.56a.32.32,0,0,0,.13.4s.1,0,.16,0a.39.39,0,0,0,.28-.1l11-12.55A.37.37,0,0,0,11.84,7Z"/></g></g></svg>