<?xml version="1.0" encoding="utf-8"?>
<!-- Generator: Adobe Illustrator 22.1.0, SVG Export Plug-In . SVG Version: 6.00 Build 0)  -->
<svg version="1.1" id="Layer_1" xmlns="http://www.w3.org/2000/svg" xmlns:xlink="http://www.w3.org/1999/xlink" x="0px" y="0px"
	 viewBox="0 0 20 19.9" style="enable-background:new 0 0 20 19.9;" xml:space="preserve">
<style type="text/css">
	.st0{opacity:0.25;fill:#77BC1F;enable-background:new    ;}
	.st1{fill:#77BC1F;}
</style>
<title>orders_1</title>
<polygon class="st0" points="10,0.5 0.5,3.6 0.5,15.4 10,19.4 19.5,15.5 19.5,3.7 "/>
<path class="st1" d="M10,16.5c-0.3,0-0.5-0.2-0.5-0.5V9c0-0.3,0.2-0.5,0.5-0.5s0.5,0.2,0.5,0.5v7C10.5,16.3,10.3,16.5,10,16.5z"/>
<path class="st1" d="M16.2,1.9l-6-1.8C10.1,0,9.9,0,9.7,0.1L5.4,1.4L0.7,2.8C0.3,2.9,0,3.3,0,3.8v11.6c0,0.4,0.2,0.8,0.6,0.9l9,3.6
	c0.2,0.1,0.5,0.1,0.7,0l9-3.6c0.4-0.2,0.6-0.5,0.6-0.9V3.8c0-0.5-0.3-0.9-0.7-1l-1.9-0.6L16.2,1.9z M10.2,1.2l7.6,2.3
	C18,3.5,18,3.5,18,3.6c0,0,0,0.1-0.1,0.1l-7.6,2.3C10.1,6,9.9,6,9.7,5.9L2.1,3.6C2,3.6,2,3.6,2,3.5c0,0,0-0.1,0.1-0.1l7.7-2.3
	C9.9,1.1,10.1,1.1,10.2,1.2L10.2,1.2z M19,5.1v10c0,0.2-0.1,0.4-0.3,0.5l-8.3,3.3c-0.2,0.1-0.5,0.1-0.7,0l-8.3-3.4
	C1.1,15.4,1,15.2,1,15V5.1c0-0.3,0.2-0.5,0.5-0.5c0,0,0.1,0,0.1,0L9.7,7C9.9,7,10.1,7,10.3,7l8.1-2.4c0.3-0.1,0.5,0.1,0.6,0.3
	C19,5,19,5,19,5.1z"/>
<path class="st1" d="M13.1,14.1c-0.1,0-0.2,0-0.3-0.1c-0.1-0.1-0.2-0.2-0.2-0.4v-4c0-0.2,0.1-0.4,0.3-0.5l3.9-1.4
	c0.2-0.1,0.3,0,0.5,0.1c0.1,0.1,0.2,0.2,0.2,0.4v2.2c0,0.3-0.2,0.5-0.5,0.5l0,0c-0.3,0-0.5-0.2-0.5-0.5V8.9l-2.9,1v3l1.3-0.5
	c0.3-0.1,0.5,0.1,0.6,0.3c0.1,0.3,0,0.5-0.3,0.6l-2,0.7C13.1,14.1,13.1,14.1,13.1,14.1z"/>
</svg>
