<?xml version="1.0" encoding="utf-8"?>
<!-- Generator: Adobe Illustrator 22.1.0, SVG Export Plug-In . SVG Version: 6.00 Build 0)  -->
<svg version="1.1" id="Layer_1" xmlns="http://www.w3.org/2000/svg" xmlns:xlink="http://www.w3.org/1999/xlink" x="0px" y="0px"
	 viewBox="0 0 36 8" style="enable-background:new 0 0 36 8;" xml:space="preserve">
<style type="text/css">
	.st0{fill:#FFFFFF;}
</style>
<title>overflow</title>
<desc>Created with Sketch.</desc>
<path id="dots" class="st0" d="M18,8c-2.2,0-4-1.8-4-4c0-2.2,1.8-4,4-4s4,1.8,4,4C22,6.2,20.2,8,18,8z M4,8C1.8,8,0,6.2,0,4
	c0-2.2,1.8-4,4-4s4,1.8,4,4C8,6.2,6.2,8,4,8z M32,8c-2.2,0-4-1.8-4-4c0-2.2,1.8-4,4-4s4,1.8,4,4C36,6.2,34.2,8,32,8z"/>
</svg>
