<?xml version="1.0" encoding="utf-8"?>
<!-- Generator: Adobe Illustrator 22.1.0, SVG Export Plug-In . SVG Version: 6.00 Build 0)  -->
<svg version="1.1" id="Layer_1" xmlns="http://www.w3.org/2000/svg" xmlns:xlink="http://www.w3.org/1999/xlink" x="0px" y="0px"
	 viewBox="0 0 18 17" style="enable-background:new 0 0 18 17;" xml:space="preserve">
<title>change_customer</title>
<path d="M0.5,4h2.8c0.3,0,0.6,0.1,0.8,0.4l2.2,2.8c0.1,0.1,0.2,0.2,0.4,0.2c0.1,0,0.2,0,0.3-0.1c0.2-0.2,0.3-0.5,0.1-0.7L4.6,3.4
	C4.4,3.1,4.1,3,3.8,3H0.5C0.2,3,0,3.2,0,3.5S0.2,4,0.5,4z"/>
<path d="M14.9,10.1c-0.2-0.2-0.5-0.2-0.7,0c0,0,0,0,0,0c-0.2,0.2-0.2,0.5,0,0.7l2.1,2.2h-3.6c-0.3,0-0.6-0.1-0.8-0.4L9.8,9.9
	C9.6,9.7,9.3,9.6,9.1,9.8S8.8,10.3,9,10.5l2.5,3.1c0.2,0.2,0.5,0.4,0.8,0.4h4l-2.1,2.2c-0.2,0.2-0.2,0.5,0,0.7
	c0.1,0.1,0.2,0.1,0.4,0.1c0.1,0,0.3-0.1,0.4-0.1l3-3c0.2-0.2,0.2-0.5,0-0.7c0,0,0,0,0,0L14.9,10.1z"/>
<path d="M16.3,4l-2.1,2.2c-0.2,0.2-0.2,0.5,0,0.7C14.2,6.9,14.4,7,14.5,7c0.1,0,0.3-0.1,0.4-0.2l3-3c0.2-0.2,0.2-0.5,0-0.7
	c0,0,0,0,0,0l-3-3c-0.2-0.2-0.5-0.2-0.7,0c0,0,0,0,0,0c-0.2,0.2-0.2,0.5,0,0.7L16.3,3h-4c-0.3,0-0.6,0.1-0.8,0.4l-7.4,9.2
	C3.9,12.9,3.6,13,3.3,13H0.5C0.2,13,0,13.2,0,13.5S0.2,14,0.5,14h3.3c0.3,0,0.6-0.1,0.8-0.4L12,4.4C12.2,4.2,12.4,4,12.7,4H16.3z"/>
</svg>
