<?xml version="1.0" encoding="utf-8"?>
<!-- Generator: Adobe Illustrator 23.0.1, SVG Export Plug-In . SVG Version: 6.00 Build 0)  -->
<svg version="1.1" id="Layer_1" xmlns="http://www.w3.org/2000/svg" xmlns:xlink="http://www.w3.org/1999/xlink" x="0px" y="0px"
	 viewBox="0 0 60 60" style="enable-background:new 0 0 60 60;" xml:space="preserve">
<style type="text/css">
	.st0{fill:#77BC1F;}
	.st1{opacity:0.35;fill:#77BC1F;}
</style>
<title>Asset 24</title>
<path class="st0" d="M50.7,16.4c-1.9-8.1-8.7-14.5-16.9-16C21.5-1.9,10.6,6.5,8.7,18c-0.3,1.8,1.2,3.5,3.1,3.5h8.9
	c1.5,0,2.9-0.9,3.5-2.3c0.9-2.2,3.1-3.8,5.7-3.8c3.4,0,6.1,2.8,6.1,6.1c0,3.4-2.8,6.1-6.1,6.1c-1.9,0-3.7-0.9-4.8-2.3l0,0
	c-0.3-0.4-0.7-0.6-1.2-0.6c-0.8,0-1.5,0.7-1.5,1.5c0,0.3,0.1,0.6,0.3,0.9l0,0c0,0,0,0,0,0c0,0,0,0,0,0c0,0,0,0,0,0
	c1.7,2.2,4.3,3.6,7.2,3.6c5.6,0,10.1-5.1,9-10.9c-0.7-3.6-3.6-6.6-7.2-7.3c-4.6-0.9-8.7,1.6-10.3,5.5c-0.1,0.3-0.4,0.5-0.7,0.5h-8
	c-0.5,0-0.9-0.5-0.8-0.9C14,8.3,22.8,1.8,32.8,3.3c7.3,1.1,14.4,8.5,15.4,15.8c0.6,4.9-0.7,9.5-3.3,13.1h0L30.5,54.6
	c-0.3,0.5-1,0.5-1.3,0L13.5,29.8l0,0c-0.3-0.4-0.7-0.7-1.2-0.7c-0.8,0-1.5,0.7-1.5,1.5c0,0.2,0,0.4,0.1,0.6l0,0l0.7,1.3l17.1,26.7
	c0.6,0.9,2,0.9,2.6,0l16.5-25.8l0,0c0,0,0,0,0,0l0.6-0.9l-0.1,0C51,28,52.2,22.4,50.7,16.4z"/>
<path class="st1" d="M49.3,21.5c0-10.7-8.7-19.5-19.5-19.5s-19.5,8.7-19.5,19.5c0,3.3,0.8,6.4,2.3,9.1h0l0,0
	c0.4,0.7,0.8,1.4,1.3,2.1l16,25.6l15.9-25.7c0.4-0.6,0.8-1.3,1.2-1.9l0,0h0C48.5,27.9,49.3,24.8,49.3,21.5z M30,29.1
	c-4.2,0-7.7-3.4-7.7-7.7c0-4.2,3.4-7.7,7.7-7.7s7.7,3.4,7.7,7.7C37.7,25.7,34.2,29.1,30,29.1z"/>
</svg>