<?xml version="1.0" encoding="utf-8"?>
<!-- Generator: Adobe Illustrator 22.1.0, SVG Export Plug-In . SVG Version: 6.00 Build 0)  -->
<svg version="1.1" id="Layer_1" xmlns="http://www.w3.org/2000/svg" xmlns:xlink="http://www.w3.org/1999/xlink" x="0px" y="0px"
	 viewBox="0 0 19 28.4" style="enable-background:new 0 0 19 28.4;" xml:space="preserve">
<style type="text/css">
	.st0{fill:#FFFFFF;}
</style>
<title>icon-trash</title>
<rect x="9" y="6.8" class="st0" width="1" height="18.2"/>
<polygon class="st0" points="7,25 6.5,6.8 5.5,6.8 6,25 "/>
<polygon class="st0" points="13.5,6.8 12.5,6.8 12,25 13,25 "/>
<path class="st0" d="M14,3.4V2.3c0.1-1.2-0.8-2.2-2-2.3H7C5.8,0.1,4.9,1.1,5,2.3v1.1H0v1.1h1.1L2,26.6c0,0,0.3,1.7,1.5,1.7h12
	c1.2,0,1.5-1.7,1.5-1.7l0.8-22.1H19V3.4H14z M6,2.3c0-0.6,0.5-1.1,1.2-1.1c0,0,0,0,0,0h4.7c0.6,0,1.2,0.5,1.2,1.1v0v1.1H6V2.3z
	 M16,26.1c0,0.4-0.2,0.8-0.5,1.1h-12C3.2,26.9,3,26.5,3,26.1C2.9,25.2,2.1,4.5,2.1,4.5h14.7C16.8,4.5,16.1,25.2,16,26.1z"/>
</svg>
