<?xml version="1.0" encoding="utf-8"?>
<!-- Generator: Adobe Illustrator 22.1.0, SVG Export Plug-In . SVG Version: 6.00 Build 0)  -->
<svg version="1.1" id="Layer_1" xmlns="http://www.w3.org/2000/svg" xmlns:xlink="http://www.w3.org/1999/xlink" x="0px" y="0px"
	 viewBox="0 0 16.5 19" style="enable-background:new 0 0 16.5 19;" xml:space="preserve">
<title>sign_out</title>
<path d="M10.5,19h-9C0.6,19,0,18.3,0,17.5v-16C0,0.7,0.7,0,1.5,0h9C11.3,0,12,0.7,12,1.5v3C12,4.8,11.8,5,11.5,5S11,4.8,11,4.5v-3
	C11,1.2,10.8,1,10.5,1h-9C1.2,1,1,1.2,1,1.5v16C1,17.8,1.2,18,1.5,18h9c0.3,0,0.5-0.2,0.5-0.5v-3c0-0.3,0.2-0.5,0.5-0.5
	s0.5,0.2,0.5,0.5v3C12,18.3,11.3,19,10.5,19C10.5,19,10.5,19,10.5,19z"/>
<path d="M16.4,9.1l-3-3c-0.2-0.2-0.5-0.2-0.7,0c-0.2,0.2-0.2,0.5,0,0.7c0,0,0,0,0,0L14.8,9H6.5C6.2,9,6,9.2,6,9.5S6.2,10,6.5,10h8.3
	l-0.3,0.3l0,0l-1.8,1.8c-0.2,0.2-0.3,0.5-0.1,0.7c0.1,0.1,0.2,0.2,0.4,0.2c0.1,0,0.3-0.1,0.4-0.1l1.8-1.8l0,0l1.2-1.2
	C16.5,9.7,16.5,9.4,16.4,9.1C16.3,9.2,16.3,9.2,16.4,9.1L16.4,9.1z"/>
</svg>
