<svg xmlns="http://www.w3.org/2000/svg" viewBox="0 0 10.98 10.98"><g style="opacity:0.35000000000000003"><path d="M2.47,1.78A1.61,1.61,0,0,1,4,.33h6a1.59,1.59,0,0,1,.69,1.25,4.34,4.34,0,0,1,0,.91l-1.36,0H8.51V8.7c0,.67-.23,2.06-1.48,2.06H1.46a1.06,1.06,0,0,1-.95-.82L.29,8.56H2.47Z" style="fill:#77bc1f"/></g><path d="M9.61,0H4.12A1.92,1.92,0,0,0,2.2,1.92V8.24H.27A.27.27,0,0,0,0,8.51C0,8.61,0,11,1.37,11H7.14c1.06,0,1.65-1.14,1.65-2.2V1.92A2.39,2.39,0,0,1,9,1a.63.63,0,0,1,.6-.4c.49,0,.82.23.82,1.37V2.2H9.61a.28.28,0,0,0-.28.27.29.29,0,0,0,.28.28h1.1A.28.28,0,0,0,11,2.47V1.92C11,1.45,11,0,9.61,0ZM2.2,10.43H1.37c-.57,0-.76-1-.81-1.64H6a2.3,2.3,0,0,0,.27,1,.28.28,0,1,0,.48-.28,1.9,1.9,0,0,1-.21-1,.27.27,0,0,0-.28-.27H2.75V1.92A1.37,1.37,0,0,1,4.12.55H8.61L8.52.7a2.93,2.93,0,0,0-.28,1.22V8.78c0,.76-.35,1.65-1.1,1.65H2.2Z" style="fill:#77bc1f"/><path d="M6.18,6H5.77V4.63h.41A.69.69,0,1,1,6.18,6ZM4.81,4.08a.67.67,0,0,1-.68-.68.68.68,0,0,1,.68-.69h.41V4.08Zm1.37,0H5.77V2.71h1.1a.25.25,0,0,0,.27-.27.26.26,0,0,0-.27-.27H5.77V1.35a.28.28,0,1,0-.55,0v.82H4.81a1.23,1.23,0,1,0,0,2.46h.41V6H3.86a.28.28,0,1,0,0,.55H5.22v.82a.26.26,0,0,0,.28.27.26.26,0,0,0,.27-.27V6.55h.41a1.24,1.24,0,1,0,0-2.47Z" style="fill:#77bc1f"/></svg>