<?xml version="1.0" encoding="utf-8"?>
<!-- Generator: Adobe Illustrator 22.1.0, SVG Export Plug-In . SVG Version: 6.00 Build 0)  -->
<svg version="1.1" id="Layer_1" xmlns="http://www.w3.org/2000/svg" xmlns:xlink="http://www.w3.org/1999/xlink" x="0px" y="0px"
	 viewBox="0 0 64 58" style="enable-background:new 0 0 64 58;" xml:space="preserve">
<style type="text/css">
	.st0{filter:url(#filter-2);}
	.st1{fill:#FFFFFF;}
	.st2{fill:#4A90E2;}
</style>
<filter  filterUnits="objectBoundingBox" height="140.8%" id="filter-2" width="140.8%" x="-20.4%" y="-16.3%">
	<feOffset  dx="0" dy="2" in="SourceAlpha" result="shadowOffsetOuter1"></feOffset>
	<feGaussianBlur  in="shadowOffsetOuter1" result="shadowBlurOuter1" stdDeviation="3"></feGaussianBlur>
	<feColorMatrix  in="shadowBlurOuter1" type="matrix" values="0 0 0 0 0   0 0 0 0 0   0 0 0 0 0  0 0 0 0.5 0"></feColorMatrix>
</filter>
<g class="st0">
	<circle id="path-1_2_" cx="32.5" cy="29.5" r="24.5"/>
</g>
<g>
	<circle id="path-1_1_" class="st1" cx="32.5" cy="29.5" r="24.5"/>
</g>
<path id="Fill-1" class="st2" d="M33,39c-5,0-9-4-9-9s4-9,9-9s9,4,9,9S38,39,33,39z M44.4,28.7c-0.6-5.3-4.8-9.5-10.1-10.1V16h-2.5
	v2.6c-5.3,0.6-9.5,4.8-10.1,10.1H19v2.5h2.6c0.6,5.3,4.8,9.5,10.1,10.1V44h2.5v-2.6c5.3-0.6,9.5-4.8,10.1-10.1H47v-2.5H44.4z M33,25
	c-2.8,0-5,2.2-5,5s2.2,5,5,5s5-2.2,5-5S35.8,25,33,25z"/>
</svg>
