<?xml version="1.0" encoding="utf-8"?>
<svg version="1.1" id="no_x5F_flash" xmlns="http://www.w3.org/2000/svg" xmlns:xlink="http://www.w3.org/1999/xlink" x="0px"
	 y="0px" viewBox="0 0 18 20" style="enable-background:new 0 0 18 20;" xml:space="preserve">
<style type="text/css">
	.st0{fill-rule:evenodd;clip-rule:evenodd;fill:#FFFFFF;}
	.st1{fill:#FFFFFF;}
</style>
<path class="st0" d="M11.9,10.7l2.9-3.3c0.1-0.1,0.1-0.3,0-0.4c0-0.1-0.2-0.2-0.3-0.2l-4-0.1l4.2-6.2c0.1-0.1,0.1-0.2,0-0.3
	C14.7,0.1,14.5,0,14.4,0H8.9C8.8,0,8.7,0.1,8.6,0.2L6.1,4.9L11.9,10.7z"/>
<path class="st0" d="M4.7,7.7l-1.6,3c-0.1,0.1-0.1,0.2,0,0.3c0.1,0.1,0.2,0.2,0.3,0.2l3.5,0.1l-3.6,8.3c-0.1,0.1,0,0.3,0.1,0.4
	c0,0,0.1,0,0.2,0c0.1,0,0.2,0,0.3-0.1L10,13L4.7,7.7z"/>
<path class="st1" d="M1.7,1.3l16,16c0.4,0.4,0.4,1,0,1.4c-0.4,0.4-1,0.4-1.4,0c0,0,0,0,0,0l-16-16c-0.4-0.4-0.4-1,0-1.4
	C0.7,0.9,1.3,0.9,1.7,1.3C1.7,1.3,1.7,1.3,1.7,1.3z"/>
</svg>
