<?xml version="1.0" encoding="utf-8"?>
<!-- Generator: Adobe Illustrator 23.0.1, SVG Export Plug-In . SVG Version: 6.00 Build 0)  -->
<svg version="1.1" id="Layer_1" xmlns="http://www.w3.org/2000/svg" xmlns:xlink="http://www.w3.org/1999/xlink" x="0px" y="0px"
	 viewBox="0 0 60 60" style="enable-background:new 0 0 60 60;" xml:space="preserve">
<style type="text/css">
	.st0{opacity:0.35;fill:#77BC1F;enable-background:new    ;}
	.st1{fill:#77BC1F;}
</style>
<title>Asset 24</title>
<path class="st0" d="M28.7,29.6h-5.5c-0.9-0.3-1.6-0.9-1.9-1.6L15,13.2c-0.3-0.9,0.3-2.2,1.3-2.4c0.3,0,0.6,0,0.6,0h30.9
	c1.6,0,2.8,1.1,2.8,2.8v13.7c0,1.3-0.9,2.4-1.9,2.8c-0.6,0.3-0.9,0.6-0.9,1.1l-2.4,21.4c-0.3,1.3-1.4,2.4-2.8,2.4h-8.2
	c-1.6,0-2.8-1.1-2.8-2.8v-0.3L34.1,30L28.7,29.6z"/>
<g>
	<path class="st1" d="M12.2,10.6c-0.3-0.8,0.2-1.5,1-1.5h34.8c1.9,0,3.9,1.9,3.9,4.1v13.7c0,1.9-1,3.2-2.9,3.8
		c-0.1,0-0.1,0.1-0.1,0.1l-0.5,5l-1.6,16.2c-0.3,1.9-1.9,3.6-4.1,3.6h-8.2c-1.1,0-2.2-0.6-3-1.3c-0.9-0.9-1.1-1.9-1.1-3.3L32.8,30
		v-0.1l-4.7-11.6c-0.3-0.6-0.9-0.9-1.3-0.9h-3.4c-1,0-1.7-0.8-1.5-1.7c0.1-0.7,0.7-1,1.3-1h3.6c1.6,0,3.3,1.1,3.9,2.4l4.9,12.3v0.1
		l-2.5,21.8c0,0.3,0,0.9,0.3,1.1c0.3,0.3,0.6,0.6,1.1,0.6h8.2c0.9,0,1.3-0.6,1.3-1.1l2.4-21.4c0-1.1,0.9-1.9,1.6-2.2
		c0.9-0.3,1.1-0.9,1.1-1.3V13.4c0-0.9-0.7-1.5-1.5-1.5H16.9c-0.3,0-0.3,0-0.6,0.3c-0.1,0.2,0,0.6,0,0.6l6.1,14.6
		c0.3,0.6,0.6,0.9,1,1h0.1h5c1,0,1.7,0.8,1.5,1.7c-0.1,0.7-0.7,1-1.3,1h-5.8c-1.3-0.3-2.4-1.1-3-2.4L12.2,10.6z"/>
</g>
<path class="st1" d="M14.5,31.3c-0.3,0-0.3,0-0.6,0c-2.4-1.1-4.1-3-5.2-5.5c-0.9-2.4-0.9-5.2,0-7.4c0.3-0.9,1.1-1.3,1.6-1.1h0.3
	c0.9,0.3,1.1,1.1,0.9,1.6c-0.6,1.9-0.6,3.9,0,5.5c0.6,1.9,1.9,3.3,3.6,4.1c0.6,0.3,1.1,1.1,0.9,1.6l0,0C15.6,31.1,15,31.3,14.5,31.3
	z"/>
<path class="st1" d="M8.7,36.3c-0.3,0-0.3,0-0.6,0C4.5,35,2,32.2,1,28.7c-1.3-3.6-1.3-7.1,0-10.7c0.3-0.6,0.9-1.1,1.7-0.9
	s1.1,1.1,0.9,1.9l0,0c-1.1,2.8-1.1,6.1,0,8.8s3,4.9,5.8,6.1c0.9,0.3,1.1,1.1,0.6,1.9C9.6,35.9,8.9,36.3,8.7,36.3z"/>
<path class="st1" d="M39.7,42h-5.5c-0.9,0-1.3-0.6-1.3-1.3c0-0.9,0.6-1.3,1.3-1.3h5.5c0.9,0,1.3,0.6,1.3,1.3S40.5,42,39.7,42z"/>
</svg>
