<svg xmlns="http://www.w3.org/2000/svg" viewBox="0 0 11 10.68"><polygon points="0.26 10.45 0.29 5.61 0.6 5.61 0.6 1.95 5.67 0.29 10.73 1.92 10.73 8.23 5.67 10.34 4.53 10.04 4.53 10.45 0.26 10.45" style="fill:#77bc1f;opacity:0.25"/><path d="M1.43,1.8,5.51.58a.55.55,0,0,1,.31,0L9.9,1.8a.06.06,0,0,1,0,.11L5.82,3.13a.55.55,0,0,1-.31,0L1.43,1.91A.06.06,0,0,1,1.43,1.8ZM6.2,10.43l4.46-1.78a.54.54,0,0,0,.34-.5V2a.53.53,0,0,0-.38-.51L8.12.71,5.82,0a.55.55,0,0,0-.31,0L2.33,1l-.64.2-1,.3A.53.53,0,0,0,.33,2V4.54A.27.27,0,0,0,.6,4.8a.26.26,0,0,0,.26-.26V2.65a.27.27,0,0,1,.35-.25l4.3,1.29a.55.55,0,0,0,.31,0l4.3-1.29a.27.27,0,0,1,.35.25V8a.27.27,0,0,1-.17.25L6,9.91H6a.18.18,0,0,0-.09.06.28.28,0,0,0,0,.4.28.28,0,0,0,.29.06Z" style="fill:#77bc1f"/><path d="M4.54,10.68H1.34a.27.27,0,0,1-.27-.26V8.28A.26.26,0,0,1,1.33,8H3.46a.25.25,0,0,1,.19.07.27.27,0,0,1,.08.19v2a.27.27,0,0,1-.27.26h0a.26.26,0,0,1-.27-.25V8.55H1.6v1.6H4.27V7.06l-1-1.18H.53v4.53a.27.27,0,0,1-.26.27A.27.27,0,0,1,0,10.41V5.61a.27.27,0,0,1,.27-.26H3.34a.25.25,0,0,1,.2.09l1.2,1.34A.29.29,0,0,1,4.81,7v3.45A.27.27,0,0,1,4.54,10.68Z" style="fill:#77bc1f"/><path d="M7.23,7.71a.27.27,0,0,1-.15,0A.27.27,0,0,1,7,7.44V5.3a.25.25,0,0,1,.18-.25l2.1-.76a.26.26,0,0,1,.24,0,.24.24,0,0,1,.11.21l0,1.18A.28.28,0,0,1,9.34,6h0a.27.27,0,0,1-.26-.27v-.8L7.5,5.48V7.06l.69-.25a.27.27,0,1,1,.18.5l-1,.38Z" style="fill:#77bc1f"/></svg>