<svg width="65" height="58" viewBox="0 0 65 58" fill="none" xmlns="http://www.w3.org/2000/svg">
<path fill-rule="evenodd" clip-rule="evenodd" d="M39.3185 56.2739C40.2909 57.3585 41.6846 57.9792 43.1433 57.9792H53.3714C55.9944 57.9792 58.1858 56.0318 58.4769 53.4466L60.7095 33.4267L61.3498 27.066C63.5345 26.4112 65 24.4433 65 22.1685V5.11581C65 2.29529 62.6955 0 59.8637 0H21.1325C19.6909 0 18.3521 0.716213 17.5611 1.91672C16.7666 3.11723 16.6297 4.62128 17.1981 5.94116L25.0498 24.1876C25.7072 25.7087 27.0632 26.8205 28.6829 27.1684L35.5584 27.2093C36.5035 27.2093 37.2705 26.4453 37.2705 25.504C37.2705 24.5593 36.5035 23.7988 35.5584 23.7988H29.2581C28.7822 23.6521 28.3918 23.3008 28.1932 22.8404L20.3449 4.60082C20.1874 4.23248 20.3244 3.93576 20.4168 3.79252C20.5127 3.64928 20.7319 3.41054 21.1325 3.41054H59.8637C60.8054 3.41054 61.5758 4.1745 61.5758 5.11581V22.1685C61.5758 22.9257 61.0861 23.5839 60.3568 23.8022C59.083 24.1876 58.1653 25.2994 58.0215 26.6261L55.0732 53.068C54.9774 53.924 54.248 54.5686 53.3714 54.5686H43.1433C42.6502 54.5686 42.1948 54.3674 41.8695 53.9991C41.5374 53.6342 41.3867 53.1635 41.4415 52.6758L42.7189 41.2196H49.6207C50.5825 41.2196 51.3631 40.4078 51.3631 39.4077C51.3631 38.4076 50.5825 37.5959 49.6207 37.5959H43.1229L44.489 25.3437L38.3426 10.0372C37.5584 8.08298 35.6888 6.82108 33.5761 6.82108H29.0458C28.0973 6.82108 27.3337 7.58504 27.3337 8.52635C27.3337 9.46766 28.0973 10.2316 29.0458 10.2316H33.5761C34.278 10.2316 34.9012 10.6511 35.1649 11.3025L40.9929 25.8144L38.0344 52.3006C37.8769 53.7433 38.3426 55.1928 39.3185 56.2739ZM17.5872 27.4817C17.8131 27.5833 18.0526 27.6307 18.2887 27.6307C18.9389 27.6307 19.5651 27.2581 19.8492 26.6316C20.2359 25.7782 19.8526 24.7758 18.9902 24.3931C16.937 23.4787 15.3492 21.7718 14.5073 19.5841C13.6552 17.3658 13.6689 14.9343 14.5518 12.7363C14.9009 11.8694 14.4731 10.8839 13.5936 10.5384C12.7176 10.193 11.7218 10.6163 11.3727 11.4867C10.1716 14.4737 10.1476 17.779 11.3077 20.7863C12.4746 23.8207 14.7024 26.1981 17.5872 27.4817ZM10.9859 33.9722C10.7456 33.9722 10.5019 33.9246 10.272 33.8225C6.12458 32 2.91735 28.6202 1.2319 24.3053C-0.443106 20.0176 -0.408282 15.3049 1.32592 11.0376C1.68112 10.1672 2.69448 9.73872 3.58596 10.0855C4.48092 10.4324 4.91621 11.4218 4.56101 12.2957C3.14718 15.7673 3.11932 19.6028 4.4844 23.0948C5.83903 26.5631 8.40202 29.273 11.6998 30.7215C12.5773 31.1058 12.9674 32.1156 12.5739 32.9691C12.2848 33.6015 11.6476 33.9722 10.9859 33.9722Z" fill="white"/>
<mask id="mask0" mask-type="alpha" maskUnits="userSpaceOnUse" x="0" y="0" width="65" height="58">
<path fill-rule="evenodd" clip-rule="evenodd" d="M39.3185 56.2739C40.2909 57.3585 41.6846 57.9792 43.1433 57.9792H53.3714C55.9944 57.9792 58.1858 56.0318 58.4769 53.4466L60.7095 33.4267L61.3498 27.066C63.5345 26.4112 65 24.4433 65 22.1685V5.11581C65 2.29529 62.6955 0 59.8637 0H21.1325C19.6909 0 18.3521 0.716213 17.5611 1.91672C16.7666 3.11723 16.6297 4.62128 17.1981 5.94116L25.0498 24.1876C25.7072 25.7087 27.0632 26.8205 28.6829 27.1684L35.5584 27.2093C36.5035 27.2093 37.2705 26.4453 37.2705 25.504C37.2705 24.5593 36.5035 23.7988 35.5584 23.7988H29.2581C28.7822 23.6521 28.3918 23.3008 28.1932 22.8404L20.3449 4.60082C20.1874 4.23248 20.3244 3.93576 20.4168 3.79252C20.5127 3.64928 20.7319 3.41054 21.1325 3.41054H59.8637C60.8054 3.41054 61.5758 4.1745 61.5758 5.11581V22.1685C61.5758 22.9257 61.0861 23.5839 60.3568 23.8022C59.083 24.1876 58.1653 25.2994 58.0215 26.6261L55.0732 53.068C54.9774 53.924 54.248 54.5686 53.3714 54.5686H43.1433C42.6502 54.5686 42.1948 54.3674 41.8695 53.9991C41.5374 53.6342 41.3867 53.1635 41.4415 52.6758L42.7189 41.2196H49.6207C50.5825 41.2196 51.3631 40.4078 51.3631 39.4077C51.3631 38.4076 50.5825 37.5959 49.6207 37.5959H43.1229L44.489 25.3437L38.3426 10.0372C37.5584 8.08298 35.6888 6.82108 33.5761 6.82108H29.0458C28.0973 6.82108 27.3337 7.58504 27.3337 8.52635C27.3337 9.46766 28.0973 10.2316 29.0458 10.2316H33.5761C34.278 10.2316 34.9012 10.6511 35.1649 11.3025L40.9929 25.8144L38.0344 52.3006C37.8769 53.7433 38.3426 55.1928 39.3185 56.2739ZM17.5872 27.4817C17.8131 27.5833 18.0526 27.6307 18.2887 27.6307C18.9389 27.6307 19.5651 27.2581 19.8492 26.6316C20.2359 25.7782 19.8526 24.7758 18.9902 24.3931C16.937 23.4787 15.3492 21.7718 14.5073 19.5841C13.6552 17.3658 13.6689 14.9343 14.5518 12.7363C14.9009 11.8694 14.4731 10.8839 13.5936 10.5384C12.7176 10.193 11.7218 10.6163 11.3727 11.4867C10.1716 14.4737 10.1476 17.779 11.3077 20.7863C12.4746 23.8207 14.7024 26.1981 17.5872 27.4817ZM10.9859 33.9722C10.7456 33.9722 10.5019 33.9246 10.272 33.8225C6.12458 32 2.91735 28.6202 1.2319 24.3053C-0.443106 20.0176 -0.408282 15.3049 1.32592 11.0376C1.68112 10.1672 2.69448 9.73872 3.58596 10.0855C4.48092 10.4324 4.91621 11.4218 4.56101 12.2957C3.14718 15.7673 3.11932 19.6028 4.4844 23.0948C5.83903 26.5631 8.40202 29.273 11.6998 30.7215C12.5773 31.1058 12.9674 32.1156 12.5739 32.9691C12.2848 33.6015 11.6476 33.9722 10.9859 33.9722Z" fill="white"/>
</mask>
<g mask="url(#mask0)">
<rect x="-20.6058" y="-31.4054" width="112.726" height="112.335" fill="#77BC1F"/>
</g>
<path opacity="0.199107" fill-rule="evenodd" clip-rule="evenodd" d="M35.8333 26.1217H29.3373C28.3206 25.8941 27.4599 25.1637 27.0377 24.1411L19.5932 5.96938C18.9046 4.28776 20.0836 2.41589 21.8311 2.41589H58.5695C60.3657 2.41589 61.8175 3.93785 61.8175 5.81311V22.7992C61.8175 24.3347 60.8464 25.6291 59.5114 26.0503C58.917 26.2406 58.5046 26.7841 58.4396 27.4296C57.9654 31.88 56.3349 47.215 55.643 53.7682C55.4579 55.4906 54.0677 56.7714 52.4112 56.7714H42.7094C40.7736 56.7714 39.2697 55.0116 39.4809 53.0005L42.3294 26.1964L35.8333 26.1217Z" fill="#77BC1F"/>
<mask id="mask1" mask-type="alpha" maskUnits="userSpaceOnUse" x="19" y="2" width="43" height="55">
<path fill-rule="evenodd" clip-rule="evenodd" d="M35.8333 26.1217H29.3373C28.3206 25.8941 27.4599 25.1637 27.0377 24.1411L19.5932 5.96938C18.9046 4.28776 20.0836 2.41589 21.8311 2.41589H58.5695C60.3657 2.41589 61.8175 3.93785 61.8175 5.81311V22.7992C61.8175 24.3347 60.8464 25.6291 59.5114 26.0503C58.917 26.2406 58.5046 26.7841 58.4396 27.4296C57.9654 31.88 56.3349 47.215 55.643 53.7682C55.4579 55.4906 54.0677 56.7714 52.4112 56.7714H42.7094C40.7736 56.7714 39.2697 55.0116 39.4809 53.0005L42.3294 26.1964L35.8333 26.1217Z" fill="white"/>
</mask>
<g mask="url(#mask1)">
</g>
</svg>
