<svg xmlns="http://www.w3.org/2000/svg" viewBox="0 0 19 19.07"><title>settings</title><g id="Layer_2" data-name="Layer 2"><g id="Layer_1-2" data-name="Layer 1"><path d="M9.5,13A3.5,3.5,0,1,1,13,9.5,3.5,3.5,0,0,1,9.5,13Zm0-6A2.5,2.5,0,1,0,12,9.5,2.5,2.5,0,0,0,9.5,7Z"/><path d="M3.82,17.13A.47.47,0,0,1,3.47,17L2.05,15.57A.5.5,0,0,1,2,15l1-1.9a7.73,7.73,0,0,1-.6-1.46L.34,11A.49.49,0,0,1,0,10.5v-2A.5.5,0,0,1,.34,8l2-.66A7.24,7.24,0,0,1,2.92,5.9L2,4.08a.52.52,0,0,1,.1-.58L3.51,2.08A.5.5,0,0,1,4.09,2l1.83.92a7.64,7.64,0,0,1,1.45-.6L8,.34A.5.5,0,0,1,8.5,0h2A.5.5,0,0,1,11,.34l.66,2a7.23,7.23,0,0,1,1.71.75.48.48,0,0,1,.17.68.5.5,0,0,1-.68.18,6.75,6.75,0,0,0-1.71-.72.51.51,0,0,1-.36-.32L10.14,1H8.86L8.24,2.88a.51.51,0,0,1-.36.32,6.56,6.56,0,0,0-1.69.7.48.48,0,0,1-.48,0L4,3.05l-.9.9.87,1.74a.48.48,0,0,1,0,.48A6.72,6.72,0,0,0,3.2,7.88a.47.47,0,0,1-.32.35L1,8.86v1.28l1.88.63a.47.47,0,0,1,.32.35,6.66,6.66,0,0,0,.71,1.7.49.49,0,0,1,0,.47L3,15.11l1.16,1.16a.5.5,0,0,1,0,.71A.47.47,0,0,1,3.82,17.13Z"/><path d="M10.5,19.07h-2A.49.49,0,0,1,8,18.72l-.68-2A7.77,7.77,0,0,1,5.73,16l.21-.46.25-.43,0,0a6.37,6.37,0,0,0,1.62.67.49.49,0,0,1,.35.33l.65,1.95h1.28l.65-1.95a.49.49,0,0,1,.35-.33,6.29,6.29,0,0,0,1.67-.7.51.51,0,0,1,.48,0l1.79.89.91-.9-.9-1.8a.51.51,0,0,1,0-.48,6.11,6.11,0,0,0,.7-1.67.47.47,0,0,1,.32-.35L18,10.14V8.86l-1.88-.63a.47.47,0,0,1-.32-.35,6.4,6.4,0,0,0-.69-1.67.49.49,0,0,1,0-.47L16,4,14.83,2.79a.5.5,0,0,1,0-.71.5.5,0,0,1,.7,0L17,3.5a.5.5,0,0,1,.09.58L16.11,6a7.3,7.3,0,0,1,.58,1.42l2,.66A.49.49,0,0,1,19,8.5v2a.49.49,0,0,1-.34.47l-2,.66a6.63,6.63,0,0,1-.59,1.43L17,14.94a.5.5,0,0,1-.09.58l-1.42,1.41A.49.49,0,0,1,15,17l-1.88-.94a7.21,7.21,0,0,1-1.43.6l-.68,2A.49.49,0,0,1,10.5,19.07Z"/></g></g></svg>