<?xml version="1.0" encoding="utf-8"?>
<!-- Generator: Adobe Illustrator 22.1.0, SVG Export Plug-In . SVG Version: 6.00 Build 0)  -->
<svg version="1.1" id="Layer_1" xmlns="http://www.w3.org/2000/svg" xmlns:xlink="http://www.w3.org/1999/xlink" x="0px" y="0px"
	 viewBox="0 0 100 80.5" style="enable-background:new 0 0 100 80.5;" xml:space="preserve">
<style type="text/css">
	.st0{fill:#999999;}
</style>
<title>unavailable-offline-cloud</title>
<g id="Layer_2_1_">
	<path class="st0" d="M17.8,2.7l69.7,69.7l-5.3,5.3l-8.4-8.2H25c-6.6-0.1-13-2.7-17.7-7.4C2.6,57.4,0,51.1,0,44.5
		c-0.1-13.5,10.6-24.5,24-25L12.5,8L17.8,2.7z M25,27.7c-4.4,0-8.6,1.8-11.7,4.9c-3.1,3.1-4.8,7.4-4.7,11.8
		c-0.1,4.4,1.6,8.7,4.7,11.8c3.1,3.1,7.3,4.9,11.7,4.9h40.6L32.2,27.7H25z M94.3,34.4c3.6,3.8,5.7,8.9,5.7,14.2
		c0,3.4-0.8,6.7-2.3,9.7c-1.5,2.9-3.8,5.4-6.4,7.3l-6.1-6c1.9-1,3.6-2.6,4.7-4.5c1.2-1.9,1.8-4.2,1.8-6.5c0.1-3.3-1.2-6.5-3.5-8.8
		c-2.4-2.4-5.6-3.7-9-3.7h-6.2v-2.1c0.1-12.5-10-22.8-22.5-22.9c-0.1,0-0.2,0-0.4,0c-3.7-0.1-7.3,0.8-10.5,2.5l-6-6.1
		C48-1.6,67.3,2.8,76.5,17.4c2,3.2,3.4,6.8,4.2,10.5C85.9,28.3,90.8,30.6,94.3,34.4z"/>
</g>
</svg>
