<?xml version="1.0" encoding="utf-8"?>
<!-- Generator: Adobe Illustrator 22.1.0, SVG Export Plug-In . SVG Version: 6.00 Build 0)  -->
<svg version="1.1" id="Layer_1" xmlns="http://www.w3.org/2000/svg" xmlns:xlink="http://www.w3.org/1999/xlink" x="0px" y="0px"
	 viewBox="0 0 20 20" style="enable-background:new 0 0 20 20;" xml:space="preserve">
<style type="text/css">
	.st0{fill:#666666;}
</style>
<title>account</title>
<path class="st0" d="M17,13.9c-1-1-2.2-1.8-3.6-2.3c2-1.9,2.1-5.1,0.2-7.1S8.6,2.4,6.6,4.3s-2.1,5.1-0.2,7.1
	c0.1,0.1,0.1,0.2,0.2,0.2c-0.6,0.2-1.2,0.5-1.7,0.8c-0.5,0.2-0.8,0.8-0.6,1.3c0.2,0.5,0.8,0.8,1.3,0.6c0.1,0,0.2-0.1,0.3-0.2
	c3.2-1.9,7.3-1.3,9.9,1.4c-1.8,1.9-4.4,2.8-7,2.4c-4.3-0.8-7.2-5-6.4-9.4s5-7.2,9.4-6.4c0.7,0.1,1.4,0.4,2.1,0.7
	c1.4,0.7,2.4,1.8,3.1,3.2c0.9,1.8,1.2,3.8,0.8,5.7c-0.1,0.4,0.1,0.9,0.5,1.1l0,0c0.5,0.3,1.1,0.1,1.4-0.4c0-0.1,0.1-0.2,0.1-0.2
	c0.3-1.3,0.3-2.6,0.1-3.9c-0.9-5.4-6.1-9.1-11.5-8.2s-9.1,6.1-8.2,11.5s6.1,9.1,11.5,8.2c2-0.3,3.9-1.3,5.4-2.7l0,0
	c0.5-0.5,1-1,1.3-1.6C18,14.9,17.5,14.4,17,13.9z M13,8c0,1.7-1.3,3-3,3S7,9.7,7,8s1.3-3,3-3S13,6.3,13,8z"/>
</svg>
