<?xml version="1.0" encoding="utf-8"?>
<!-- Generator: Adobe Illustrator 22.1.0, SVG Export Plug-In . SVG Version: 6.00 Build 0)  -->
<svg version="1.1" id="Layer_1" xmlns="http://www.w3.org/2000/svg" xmlns:xlink="http://www.w3.org/1999/xlink" x="0px" y="0px"
	 viewBox="0 0 24 24" style="enable-background:new 0 0 24 24;" xml:space="preserve">
<style type="text/css">
	.st0{fill:#FFFFFF;}
</style>
<path id="Fill-1" class="st0" d="M19.8,17.1h0.9V6.8h-0.9V17.1z M16.3,17.1h2.6V6.8h-2.6V17.1z M13.7,17.1h1.7V6.8h-1.7V17.1z
	 M11.1,17.1H12V6.8h-0.9V17.1z M7.7,17.1h2.6V6.8H7.7V17.1z M6,17.1h0.9V6.8H6V17.1z M3.4,17.1h1.7V6.8H3.4V17.1z"/>
<polygon id="Fill-2" class="st0" points="0,0 0,8 1,8 1,1 8,1 8,0 "/>
<polygon id="Fill-3" class="st0" points="0,16 0,24 8,24 8,23 1,23 1,16 "/>
<polygon id="Fill-4" class="st0" points="16,0 16,1 23,1 23,8 24,8 24,0 "/>
<polygon id="Fill-5" class="st0" points="23,16 23,23 16,23 16,24 24,24 24,16 "/>
</svg>
