<?xml version="1.0" encoding="utf-8"?>
<!-- Generator: Adobe Illustrator 23.0.1, SVG Export Plug-In . SVG Version: 6.00 Build 0)  -->
<svg version="1.1" id="Layer_1" xmlns="http://www.w3.org/2000/svg" xmlns:xlink="http://www.w3.org/1999/xlink" x="0px" y="0px"
	 viewBox="0 0 60 60" style="enable-background:new 0 0 60 60;" xml:space="preserve">
<style type="text/css">
	.st0{opacity:0.35;fill:#77BC1F;enable-background:new    ;}
	.st1{fill:#77BC1F;}
</style>
<title>Asset 23</title>
<path class="st0" d="M45.4,8.7H19.8c-0.2-2.1-2-3.6-4.1-3.4c-1.8,0.2-3.3,1.5-3.3,3.3v0.3v45.5h30.4v-7.1h2.5c1.5,0,2.5-1,2.5-2.5
	V11.5c0-1.5-1-2.5-2.3-2.9L45.4,8.7L45.4,8.7L45.4,8.7z"/>
<path class="st1" d="M45.4,48.4H18.5V8.7c0-0.8,0.4-1.2,1.2-1.2c0.8,0,1.2,0.4,1.2,1.2v37h24.2c0.8,0,1.2-0.4,1.2-1.2V11.3
	c0-0.8-0.4-1.2-1.2-1.2H24.1c-0.4,0-1.2-0.4-1.2-1.2c0-0.8,0.4-1.2,1.2-1.2H45c2.1,0,3.8,1.8,3.8,3.8v33.1
	C49.1,46.6,47.4,48.4,45.4,48.4z"/>
<path class="st1" d="M40.5,56H14.9c-2.1,0-3.8-1.5-3.8-3.8l0,0V8.7c0.3-2.9,2.5-4.9,5.4-4.6c2.5,0.3,4.3,2.1,4.6,4.6
	c0,0.8-0.4,1.2-1.2,1.2c-0.8,0-1.4-0.4-1.4-1.2c0-1.2-1-2.5-2.3-2.5s-2.5,1-2.5,2.2v43.9c0,0.8,0.4,1.2,1.2,1.2h25.5
	c0.8,0,1.2-0.4,1.2-1.2v-1c0-0.8,0.4-1.2,1.2-1.2s1.2,0.4,1.2,1.2v1C44.3,54.2,42.5,56,40.5,56z"/>
<path class="st1" d="M44.3,28H23.9V15.3h20.5L44.3,28L44.3,28z M26.4,25.5h15.4v-7.6H26.4V25.5z"/>
<path class="st1" d="M39.2,33H25.1c-0.8,0-1.2-0.4-1.2-1.2s0.4-1.2,1.2-1.2h14c0.8,0,1.2,0.4,1.2,1.2C40.4,32.5,39.9,33,39.2,33z"/>
<path class="st1" d="M35.1,38.2h-10c-0.8,0-1.2-0.4-1.2-1.2s0.4-1.2,1.2-1.2h10c0.8,0,1.2,0.4,1.2,1.2S35.6,38.2,35.1,38.2z"/>
</svg>
