<svg width="41" height="54" viewBox="0 0 41 54" fill="none" xmlns="http://www.w3.org/2000/svg">
<g clip-path="url(#clip0)">
<path opacity="0.25" d="M39.3912 1.57092H1.56007V52.38H39.3912V1.57092Z" fill="#77BC1F"/>
<path d="M22.0844 0H1.56005C0.682521 0 0 0.687273 0 1.57091C0 2.45455 0.682521 3.19091 1.56005 3.19091H36.2711C37.1486 3.19091 37.8312 3.87818 37.8312 4.76182V49.2382C37.8312 50.1218 37.1486 50.8091 36.2711 50.8091H4.72889C3.85137 50.8091 3.16885 50.1218 3.16885 49.2382V9.52364C3.16885 8.64 2.48633 7.95273 1.6088 7.95273C0.682521 7.95273 0 8.64 0 9.52364V31.7618V50.8091C0 52.5764 1.41379 54 3.16885 54H18.9643H22.1332H37.9287C39.6837 54 41.0975 52.5764 41.0975 50.8091V34.9527V31.7618V3.19091C41 1.42364 39.5862 0 37.8312 0H22.0844Z" fill="#77BC1F"/>
<path d="M20.5244 15.9054H33.151C34.0285 15.9054 34.7111 15.2182 34.7111 14.3345C34.7111 13.4509 33.9798 12.7145 33.1023 12.7145H20.5244C19.6468 12.7145 18.9643 13.4018 18.9643 14.2854C18.9643 15.1691 19.6468 15.9054 20.5244 15.9054Z" fill="#77BC1F"/>
<path d="M12.6266 19.0473H15.7955V15.9054V12.7145V9.52362H12.6266H9.45776H6.28891V12.7145V15.9054V19.0963H9.45776H12.6266V19.0473ZM9.45776 12.7145H12.6266V15.9054H9.45776V12.7145Z" fill="#77BC1F"/>
<path d="M20.5244 28.5709H33.151C34.0285 28.5709 34.7111 27.8836 34.7111 27C34.7111 26.1164 33.9798 25.4291 33.1023 25.4291H20.5244C19.6468 25.4291 18.9643 26.1164 18.9643 27C18.9643 27.8836 19.6468 28.5709 20.5244 28.5709Z" fill="#77BC1F"/>
<path d="M6.28891 25.4291V28.62V31.8109H9.45776H12.6266H15.7955V28.5709V25.4291V22.2382H12.6266H9.45776H6.28891V25.4291ZM12.6266 25.4291V28.62H9.45776V25.4291H12.6266Z" fill="#77BC1F"/>
<path d="M20.5244 41.2854H33.151C34.0285 41.2854 34.7111 40.5981 34.7111 39.7145C34.7111 38.8309 34.0285 38.1436 33.151 38.1436H20.5244C19.6468 38.1436 18.9643 38.8309 18.9643 39.7145C18.9156 40.5981 19.6468 41.2854 20.5244 41.2854Z" fill="#77BC1F"/>
<path d="M6.28891 38.0945V41.2854V44.4763H9.45776H12.6266H15.7955V41.2854V38.0945V34.9527H12.6266H9.45776H6.28891V38.0945ZM12.6266 38.0945V41.2854H9.45776V38.0945H12.6266Z" fill="#77BC1F"/>
</g>
<defs>
<clipPath id="clip0">
<rect width="41" height="54" fill="white"/>
</clipPath>
</defs>
</svg>
