<?xml version="1.0" encoding="utf-8"?>
<svg version="1.1" id="Layer_1" xmlns="http://www.w3.org/2000/svg" xmlns:xlink="http://www.w3.org/1999/xlink" x="0px" y="0px"
	 viewBox="0 0 20 20" style="enable-background:new 0 0 20 20;" xml:space="preserve">
<style type="text/css">
	.st0{fill:#231F20;}
</style>
<path class="st0" d="M17,0h-3c-0.5,0-1,0.4-1,0.9c0,0,0,0.1,0,0.1c0,0.5,0.4,1,0.9,1c0,0,0.1,0,0.1,0h3c0.5,0,1,0.4,1,0.9
	c0,0,0,0.1,0,0.1v3c0,0.6,0.4,1,1,1s1-0.4,1-1V3C20,1.3,18.7,0,17,0z M19,13c-0.5,0-1,0.4-1,0.9c0,0,0,0.1,0,0.1v3
	c0,0.5-0.4,1-0.9,1c0,0-0.1,0-0.1,0h-3c-0.6,0-1,0.4-1,1s0.4,1,1,1h3c1.7,0,3-1.3,3-3v-3c0-0.5-0.4-1-0.9-1C19.1,13,19,13,19,13z
	 M6,0H3C1.3,0,0,1.3,0,3v3c0,0.5,0.4,1,0.9,1C0.9,7,1,7,1,7c0.5,0,1-0.4,1-0.9C2,6.1,2,6,2,6V3c0-0.5,0.4-1,0.9-1C2.9,2,3,2,3,2h3
	c0.5,0,1-0.4,1-0.9C7,1.1,7,1,7,1c0-0.5-0.4-1-0.9-1C6.1,0,6,0,6,0z M7,19c0,0.5-0.4,1-0.9,1c0,0-0.1,0-0.1,0H3c-1.7,0-3-1.3-3-3v-3
	c0-0.5,0.4-1,0.9-1c0,0,0.1,0,0.1,0c0.5,0,1,0.4,1,0.9c0,0,0,0.1,0,0.1v3c0,0.5,0.4,1,0.9,1c0,0,0.1,0,0.1,0h3c0.5,0,1,0.4,1,0.9
	C7,18.9,7,19,7,19z"/>
</svg>
