<svg id="Layer_1" xmlns="http://www.w3.org/2000/svg" viewBox="0 0 20 20"><style>.st1{fill:#77bc1f}</style><path d="M4.5 3.2C4.6 1.7 5.9.6 7.4.5h10.9c.7.6 1.2 1.5 1.2 2.4 0 .6 0 1.1-.1 1.7h-4V16c0 1.2-.4 3.8-2.7 3.8h-10c-.8-.1-1.6-.7-1.7-1.5l-.4-2.5h4L4.5 3.2z" opacity=".35" fill="#77bc1f"/><path class="st1" d="M13.5 6h-5c-.3 0-.5-.2-.5-.5s.2-.5.5-.5h5c.3 0 .5.2.5.5s-.2.5-.5.5zM13.5 9h-5c-.3 0-.5-.2-.5-.5s.2-.5.5-.5h5c.3 0 .5.2.5.5s-.2.5-.5.5zM13.5 12h-5c-.3 0-.5-.2-.5-.5s.2-.5.5-.5h5c.3 0 .5.2.5.5s-.2.5-.5.5z"/><circle class="st1" cx="6.5" cy="5.5" r=".5"/><circle class="st1" cx="6.5" cy="8.5" r=".5"/><circle class="st1" cx="6.5" cy="11.5" r=".5"/><path class="st1" d="M17.5 0h-10C5.6 0 4 1.6 4 3.5V15H.5c-.3 0-.5.2-.5.5 0 .2 0 4.5 2.5 4.5H13c1.9 0 3-2.1 3-4V3.5c0-.6.1-1.2.4-1.8.2-.4.6-.7 1.1-.7.9 0 1.5.4 1.5 2.5V4h-1.5c-.3 0-.5.2-.5.5s.2.5.5.5h2c.3 0 .5-.2.5-.5v-1c0-.9 0-3.5-2.5-3.5zM4 19H2.5c-1 0-1.4-1.9-1.5-3h9c0 .6.2 1.2.5 1.8.2.2.5.3.7.1.2-.1.3-.4.2-.6-.3-.5-.4-1.1-.4-1.8 0-.3-.2-.5-.5-.5H5V3.5C5 2.1 6.1 1 7.5 1h8.2c-.1.1-.1.2-.2.3-.3.7-.5 1.4-.5 2.2V16c0 1.4-.6 3-2 3H4z"/></svg>