<?xml version="1.0" encoding="UTF-8"?>
<svg width="126px" height="138px" viewBox="0 0 126 138" version="1.1" xmlns="http://www.w3.org/2000/svg" xmlns:xlink="http://www.w3.org/1999/xlink">
  <!-- Generator: sketchtool 53 (72520) - https://sketchapp.com -->
  <title>E1CC4527-5402-49CD-98E5-DF6162F1C00E@1.5x</title>
  <desc>Created with sketchtool.</desc>
  <g id="iPhone-X" stroke="none" stroke-width="1" fill="none" fill-rule="evenodd">
    <g id="location-finder:search-error-v1" transform="translate(-125.000000, -471.000000)" fill="#999999">
      <g id="Errors/Full-Page-Error" transform="translate(0.000000, 468.000000)">
        <g id="Icons/Search" transform="translate(125.000000, 0.000000)">
          <g id="Group-7" transform="translate(0.000000, 3.602005)">
            <path d="M21.2001234,42.0852019 C20.0142062,42.0852019 19.0728844,41.0374984 19.3323038,39.9409021 C19.7029029,38.3693469 20.2588016,36.860654 20.8147003,35.3589456 L27.9598515,42.0852019 L21.2001234,42.0852019 Z M124.915998,123.582564 L6.32427424,11.8275248 C4.87893762,10.4655102 2.5293391,10.4655102 1.08400247,11.8275248 C-0.361334157,13.1895393 -0.361334157,15.4036861 1.08400247,16.7657006 L15.0259419,29.8969178 C13.4101297,33.4381556 12.1797406,37.16798 11.4904262,41.0794064 C10.7640519,45.2772051 14.3662755,49.0698918 18.8801729,49.0698918 L35.3718345,49.0698918 L84.2019765,95.0850294 L64.2489191,124.58836 C63.5225448,125.664002 61.8474367,125.664002 61.1210624,124.58836 L22.9938233,68.0682485 L22.9345275,68.0961873 C22.267449,67.1742082 21.2001235,66.5316167 19.9252625,66.5316167 C17.8795553,66.5316167 16.2192712,68.103172 16.2192712,70.0239617 C16.2192712,70.5268594 16.3452749,71.0018183 16.5453984,71.4278844 L16.5379864,71.4348691 L18.2872143,74.3824083 L59.564546,135.267951 C61.0247066,137.412251 64.3526868,137.412251 65.8128474,135.267951 L89.5978999,100.169884 L119.675726,128.52074 C120.4021,129.20524 121.350834,129.540505 122.299568,129.540505 C123.248301,129.540505 124.197035,129.20524 124.915998,128.52074 C126.361334,127.158726 126.361334,124.944579 124.915998,123.582564 L124.915998,123.582564 Z" id="Fill-1"></path>
            <path d="M71.2667684,7.35731391 C88.3574538,9.84971423 105.188971,26.4107875 107.334306,42.7796094 C108.774128,53.765396 105.649714,64.0439725 99.5232723,72.139124 L99.5160732,72.139124 L93.3032419,81.4358458 L98.5585916,86.448111 L106.218444,75.0022946 L106.225643,75.0091607 C106.240041,74.9885624 106.24724,74.9610979 106.261639,74.9404995 L107.607872,72.9355935 L107.485487,72.9218613 C113.993482,62.7050798 116.822732,50.1126219 113.453549,36.6550334 C108.896513,18.4735567 93.1304633,4.10277465 73.8368504,0.800172563 C54.6512242,-2.48869729 37.0062074,4.63146562 25.9411765,17.1895929 L31.052544,22.0645357 C40.2674039,11.2641343 55.0831708,4.9953698 71.2667684,7.35731391" id="Fill-3"></path>
            <path d="M69.7476255,63.2043104 L75.1323464,68.4380878 C82.2452216,63.8891711 86.5841497,55.5699161 84.8559954,46.3783648 C83.2613467,37.8716742 76.1633054,30.8860953 67.4335305,29.2352206 C57.83597,27.4257466 49.1655309,31.6430466 44.4705882,38.6358346 L49.907228,43.9128664 C52.3696624,39.2774409 57.2500293,36.0189459 62.9833479,36.0189459 C71.1642669,36.0189459 77.8172899,42.4926816 77.8172899,50.4370655 C77.8172899,56.0168778 74.5241548,60.8036935 69.7476255,63.2043104" id="Fill-5"></path>
          </g>
        </g>
      </g>
    </g>
  </g>
</svg>