<?xml version="1.0" encoding="utf-8"?>
<!-- Generator: Adobe Illustrator 22.1.0, SVG Export Plug-In . SVG Version: 6.00 Build 0)  -->
<svg version="1.1" id="Layer_1" xmlns="http://www.w3.org/2000/svg" xmlns:xlink="http://www.w3.org/1999/xlink" x="0px" y="0px"
	 viewBox="0 0 4 18" style="enable-background:new 0 0 4 18;" xml:space="preserve">
<style type="text/css">
	.st0{fill:#FFFFFF;}
</style>
<path id="path-1_1_" class="st0" d="M2,11c-1.1,0-2-0.9-2-2s0.9-2,2-2s2,0.9,2,2S3.1,11,2,11z M2,18c-1.1,0-2-0.9-2-2s0.9-2,2-2
	s2,0.9,2,2S3.1,18,2,18z M2,4C0.9,4,0,3.1,0,2s0.9-2,2-2s2,0.9,2,2S3.1,4,2,4z"/>
</svg>
