<svg version="1.1" id="saved_x5F_payments" xmlns="http://www.w3.org/2000/svg" x="0" y="0" viewBox="0 0 20 16" xml:space="preserve"><style>.st0{fill:#333}</style><path class="st0" d="M13.1 12H2.5c-.3 0-.5-.2-.5-.5s.2-.5.5-.5h10.6c.3 0 .5.2.5.5s-.2.5-.5.5zM6.6 14H2.5c-.3 0-.5-.2-.5-.5s.2-.5.5-.5h4.1c.3 0 .5.2.5.5s-.2.5-.5.5zM10.1 14H8.5c-.3 0-.5-.2-.5-.5s.2-.5.5-.5h1.6c.3 0 .5.2.5.5s-.2.5-.5.5z"/><path class="st0" d="M18.3 0H5.7C4.8 0 4 .8 4 1.7V6h10.3c.4 0 .7.3.7.7v7.5c0 .4-.3.7-.7.7H1.7c-.4.1-.7-.2-.7-.6V6.7c0-.4.3-.7.7-.7H2c.3 0 .5-.2.5-.5S2.3 5 2 5h-.3C.8 5 0 5.8 0 6.7v7.5c0 1 .8 1.7 1.7 1.7h12.5c1 0 1.7-.8 1.7-1.7V6.7c0-1-.8-1.7-1.7-1.7H5V4h14v5.3c0 .4-.3.7-.7.7H18c-.3 0-.5.2-.5.5s.2.5.5.5h.3c1 0 1.7-.8 1.7-1.7V1.7c0-.9-.8-1.7-1.7-1.7zm.7 2H5v-.3c0-.4.3-.7.7-.7h12.5c.5 0 .8.3.8.7V2z"/></svg>