<?xml version="1.0" encoding="utf-8"?>
<svg version="1.1" id="search" xmlns="http://www.w3.org/2000/svg" xmlns:xlink="http://www.w3.org/1999/xlink" x="0px" y="0px"
	 viewBox="0 0 60 60" style="enable-background:new 0 0 60 60;" xml:space="preserve">
<style type="text/css">
	.st0{opacity:0.25;fill:#77BC1F;enable-background:new    ;}
	.st1{fill:#77BC1F;}
</style>
<circle class="st0" cx="23.7" cy="26.4" r="18.8"/>
<path class="st1" d="M52.3,57.6c-0.9,0-1.8-0.3-2.5-1L37,45c-0.5-0.5-0.6-1.3-0.1-1.8s1.3-0.6,1.8-0.1l12.8,11.6
	c0.2,0.2,0.6,0.3,0.9,0.3c0.3,0,0.6-0.2,0.8-0.4c0.4-0.5,0.4-1.2-0.1-1.7L37.6,38.7c-0.5-0.5-0.6-1.2-0.1-1.7
	c5.6-7,4.9-17.1-1.6-23.3c-3.4-3.3-7.9-5-12.5-4.9c-4.7,0.1-9.1,2-12.3,5.5c-3.1,3.3-4.8,8-4.5,12.9s2.4,9.4,5.9,12.4
	c3.2,2.8,7.4,4.2,11.6,4.2c1.7,0,3.4-0.3,5-0.8c0.7-0.2,1.4,0.2,1.6,0.8c0.2,0.7-0.2,1.4-0.8,1.6c-1.8,0.6-3.8,0.9-5.7,0.9
	c-4.9,0.1-9.6-1.6-13.3-4.8c-4-3.4-6.5-8.6-6.8-14.2s1.6-11,5.2-14.8C13,8.6,18,6.3,23.4,6.2C28.6,6,33.8,8,37.7,11.8
	c7.1,6.9,8.1,17.8,2.5,25.8L54.9,51c1.5,1.4,1.7,3.7,0.4,5.2c-0.7,0.8-1.6,1.3-2.6,1.3C52.5,57.6,52.4,57.6,52.3,57.6z"/>
<path class="st1" d="M14.9,36.1c-0.3,0-0.6-0.1-0.9-0.4c-2.6-2.6-4.1-6-4.2-9.7c-0.1-3.7,1.3-7.2,3.9-9.8c0.5-0.5,1.3-0.5,1.8,0
	c0.5,0.5,0.5,1.3,0,1.8c-4.3,4.4-4.2,11.6,0.2,15.9c0.5,0.5,0.5,1.3,0,1.8C15.6,36,15.2,36.1,14.9,36.1z"/>
<path class="st1" d="M32.6,35.8c-0.3,0-0.6-0.1-0.9-0.4c-0.5-0.5-0.5-1.3,0-1.8c4.3-4.4,4.2-11.6-0.2-15.9c-0.5-0.5-0.5-1.3,0-1.8
	c0.5-0.5,1.3-0.5,1.8,0c5.5,5.3,5.6,14,0.3,19.5C33.3,35.7,32.9,35.8,32.6,35.8z"/>
</svg>
