<?xml version="1.0" encoding="utf-8"?>
<!-- Generator: Adobe Illustrator 22.1.0, SVG Export Plug-In . SVG Version: 6.00 Build 0)  -->
<svg version="1.1" id="Layer_1" xmlns="http://www.w3.org/2000/svg" xmlns:xlink="http://www.w3.org/1999/xlink" x="0px" y="0px"
	 viewBox="0 0 19.6 19.6" style="enable-background:new 0 0 19.6 19.6;" xml:space="preserve">
<style type="text/css">
	.st0{fill:#666666;}
</style>
<title>search_1</title>
<path class="st0" d="M19.3,17.9L13.5,12c2.5-3.3,1.8-8-1.5-10.5C10.7,0.6,9.1,0,7.5,0c-0.3,0-0.7,0-1,0C2.3,0.7-0.5,4.5,0.1,8.6
	C0.6,12.3,3.8,15,7.5,15l0,0c0.6,0,1-0.4,1-1s-0.4-1-1-1l0,0C4.4,13,2,10.5,2,7.5c0-2.7,2-5,4.7-5.4C7,2,7.2,2,7.5,2
	c2.7,0,5,2,5.4,4.7c0.2,1.4-0.1,2.9-1,4.1c-0.4,0.5-0.8,0.9-1.3,1.2l7.3,7.2c0.4,0.4,1,0.5,1.4,0.1c0.4-0.4,0.5-1,0.1-1.4
	C19.4,17.9,19.3,17.9,19.3,17.9L19.3,17.9z"/>
<path class="st0" d="M4,8.1c-0.6,0-1-0.4-1-1c0-2.2,1.8-4,4-4c0.6,0,1,0.4,1,1s-0.4,1-1,1c-1.1,0-2,0.9-2,2C5,7.6,4.6,8.1,4,8.1z"/>
</svg>
