<?xml version="1.0" encoding="utf-8"?>
<!-- Generator: Adobe Illustrator 22.1.0, SVG Export Plug-In . SVG Version: 6.00 Build 0)  -->
<svg version="1.1" id="Layer_1" xmlns="http://www.w3.org/2000/svg" xmlns:xlink="http://www.w3.org/1999/xlink" x="0px" y="0px"
	 viewBox="0 0 19.2 19.6" style="enable-background:new 0 0 19.2 19.6;" xml:space="preserve">
<style type="text/css">
	.st0{opacity:0.25;}
	.st1{fill:#666666;}
</style>
<title>shop</title>
<g class="st0">
	<polygon class="st1" points="10.9,19 1,10 1,1 9.1,1 19,10.9 	"/>
</g>
<path class="st1" d="M2,2h6.2l9,9l-6.2,6.2L2,9.1V8c0-0.6-0.4-1-1-1l0,0C0.4,7,0,7.4,0,8v1.1c0,0.6,0.2,1.1,0.6,1.5l9.6,8.8
	c0.2,0.2,0.4,0.3,0.7,0.3c0.3,0,0.5-0.1,0.7-0.3l6.9-6.9c0.8-0.8,0.8-2,0-2.8l-9-9C9.2,0.2,8.7,0,8.2,0H1C0.4,0,0,0.4,0,1v2
	c0,0.6,0.4,1,1,1l0,0c0.6,0,1-0.4,1-1V2z"/>
<path class="st1" d="M13,12c-0.3,0-0.5-0.1-0.7-0.3l-5-5c-0.4-0.4-0.4-1,0-1.4s1-0.4,1.4,0l5,5c0.4,0.4,0.4,1,0,1.4c0,0,0,0,0,0
	C13.5,11.9,13.3,12,13,12z"/>
<path class="st1" d="M9,13c-0.3,0-0.5-0.1-0.7-0.3l-3-3c-0.4-0.4-0.4-1,0-1.4s1-0.4,1.4,0l3,3c0.4,0.4,0.4,1,0,1.4c0,0,0,0,0,0
	C9.5,12.9,9.3,13,9,13z"/>
</svg>
