<svg xmlns="http://www.w3.org/2000/svg" viewBox="0 0 19.17 19.62"><defs><style>.cls-1{fill:#666;}</style></defs><title>shop_selected</title><g id="Layer_2" data-name="Layer 2"><g id="Layer_1-2" data-name="Layer 1"><path class="cls-1" d="M2,2H8.17l9,9-6.24,6.24L2,9.12V8A1,1,0,0,0,1,7H1A1,1,0,0,0,0,8V9.12a2,2,0,0,0,.65,1.47l9.64,8.77a1.05,1.05,0,0,0,.68.26,1,1,0,0,0,.7-.29l6.92-6.92a2,2,0,0,0,0-2.82l-9-9A2,2,0,0,0,8.17,0H1A1,1,0,0,0,0,1V3A1,1,0,0,0,1,4H1A1,1,0,0,0,2,3Z"/><path class="cls-1" d="M13,12a1,1,0,0,1-.71-.29l-5-5A1,1,0,1,1,8.71,5.29l5,5a1,1,0,0,1,0,1.42A1,1,0,0,1,13,12Z"/><path class="cls-1" d="M9,13a1,1,0,0,1-.71-.29l-3-3A1,1,0,0,1,6.71,8.29l3,3a1,1,0,0,1,0,1.42A1,1,0,0,1,9,13Z"/></g></g></svg>