<?xml version="1.0" encoding="utf-8"?>
<!-- Generator: Adobe Illustrator 22.1.0, SVG Export Plug-In . SVG Version: 6.00 Build 0)  -->
<svg version="1.1" id="Layer_1" xmlns="http://www.w3.org/2000/svg" xmlns:xlink="http://www.w3.org/1999/xlink" x="0px" y="0px"
	 viewBox="0 0 16 16" style="enable-background:new 0 0 16 16;" xml:space="preserve">
<style type="text/css">
	.st0{fill:#FFFFFF;}
</style>
<path class="st0" d="M1.2,5.2L3,3.4V15c0,0.6,0.4,1,1,1l0,0c0.6,0,1-0.4,1-1V3.4l1.8,1.8L8,4L5.2,1.2l0,0L4,0L0,4L1.2,5.2z"/>
<path class="st0" d="M14.8,10.8L13,12.6V1c0-0.6-0.4-1-1-1l0,0c-0.6,0-1,0.4-1,1v11.6l-1.8-1.8L8,12l2.8,2.8l0,0L12,16l4-4
	L14.8,10.8z"/>
</svg>
