<svg width="55" height="56" viewBox="0 0 55 56" fill="none" xmlns="http://www.w3.org/2000/svg">
<path opacity="0.25" d="M50.4167 21.0823L53.0357 19.7647L42.5595 1.64703H12.1131L1.63692 20.0941L4.58335 21.0823V54.3529H50.4167V21.0823Z" fill="#77BC1F"/>
<path d="M45.506 49.4118V28.6588C45.506 27.3412 44.5238 26.3529 43.2143 26.3529H11.7857C10.4762 26.3529 9.49405 27.3412 9.49405 28.9882V53.6941C9.49405 55.0118 10.4762 56 11.7857 56H49.4345C50.7441 56 52.0536 55.0118 52.0536 53.3647V23.0588C53.6905 23.0588 55 21.7412 55 20.0941C55 19.4353 55 19.1059 54.6726 18.4471L45.1786 1.64706C44.1964 0.658823 43.2143 0 41.9048 0H32.0833H12.4405C11.4583 0 10.8036 0.329412 10.1488 1.31765L0.327381 18.4471C0 18.7765 0 19.4353 0 20.0941C0 21.7412 1.30952 23.0588 2.94643 23.0588V54.3529C2.94643 55.3412 3.60119 56 4.58333 56C5.56548 56 6.22024 55.3412 6.22024 54.3529V23.7176C6.22024 23.3882 6.54762 23.0588 6.875 23.0588H22.5893H48.7798V51.7176C48.7798 52.0471 48.4524 52.7059 47.7976 52.7059H13.4226C13.0952 52.7059 12.4405 52.3765 12.4405 51.7176V30.6353C12.7679 29.9765 13.0952 29.6471 13.4226 29.6471H41.25C41.5774 29.6471 42.2321 29.9765 42.2321 30.6353V47.7647C42.2321 48.7529 42.8869 49.4118 43.869 49.4118C44.8512 49.4118 45.506 48.7529 45.506 47.7647V49.4118ZM50.744 18.4471C51.0714 19.1059 50.744 19.7647 50.0893 19.7647H32.4107H4.91071C4.25595 19.7647 3.92857 19.1059 4.25595 18.4471L12.7679 3.62353C12.7679 3.29412 13.0952 3.29412 13.4226 3.29412H22.5893H41.25C41.9048 3.29412 42.2321 3.62353 42.5595 3.95294L50.744 18.4471Z" fill="#77BC1F"/>
<path d="M37.3215 36.2353H17.6786C16.6965 36.2353 16.0417 35.5765 16.0417 34.5882C16.0417 33.6 16.6965 32.9412 17.6786 32.9412H37.3215C38.3036 32.9412 38.9584 33.6 38.9584 34.5882C38.9584 35.5765 38.3036 36.2353 37.3215 36.2353Z" fill="#77BC1F"/>
<path d="M37.3215 49.4118H17.6786C16.6965 49.4118 16.0417 48.753 16.0417 47.7647C16.0417 46.7765 16.6965 46.1177 17.6786 46.1177H37.3215C38.3036 46.1177 38.9584 46.7765 38.9584 47.7647C38.9584 48.753 38.3036 49.4118 37.3215 49.4118Z" fill="#77BC1F"/>
<path d="M37.3215 42.8235H17.6786C16.6965 42.8235 16.0417 42.1647 16.0417 41.1765C16.0417 40.1882 16.6965 39.5294 17.6786 39.5294H37.3215C38.3036 39.5294 38.9584 40.1882 38.9584 41.1765C38.9584 42.1647 38.3036 42.8235 37.3215 42.8235Z" fill="#77BC1F"/>
</svg>
